<svg width="706" height="691" viewBox="0 0 706 691" fill="none" xmlns="http://www.w3.org/2000/svg">
    <g filter="url(#filter0_i)">
        <path fill-rule="evenodd" clip-rule="evenodd"
            d="M256.594 79.7891C243.366 68.3355 226.722 58.7218 210 55.5001C150.835 44.1015 102.553 67.1978 75.4996 100C48.7092 132.483 45.4996 154.5 43.9996 187.5C43.7499 192.994 45.4996 212 45.4996 212C44.1657 189.402 61.4996 143.5 86.4786 118.682C114.844 90.5001 148.988 72.4014 204 83.0001C227.177 89.5598 236.586 100.849 246.944 113.278C248.428 115.06 249.933 116.865 251.5 118.682C261.543 136.464 266.234 151.292 265.5 175C265.483 175.532 265.464 176.065 265.442 176.598C253.394 163.013 240.801 152.833 204.784 151C178.07 152.51 159.67 161.699 146.219 182.711C141.824 189.578 138 201.839 138 201.839C146.036 188.982 167.693 169.624 203.243 169.624C234.164 169.624 252.704 204.267 258.539 220.369C256.418 228.768 253.987 236.895 251.5 244.5C247.601 256.42 241.051 271.056 234.744 283.227L235.5 281.5C230.5 273.5 224.096 269.723 214.5 268C210.079 267.206 203 268 203 268C218.405 271.259 222.896 291.558 224.392 301.185C223.943 301.851 223.511 302.473 223.096 303.046C218.962 305.328 214.884 307.974 210.948 311.028C204.178 316.282 196.523 318.466 184.406 321.922L184.045 322.025C171.869 325.498 156.167 330.085 134.824 340.483C119.593 347.903 112.405 354.67 104.12 362.47C101.372 365.057 98.5024 367.758 95.1789 370.635C81.6934 382.306 59.3677 398.331 4.8519 424.469C3.17721 425.272 1.72569 426.553 0.845321 428.355C-0.00860053 430.103 -0.113269 431.906 0.0864798 433.444C0.464445 436.356 2.03471 439.181 3.70391 441.503C6.86579 445.901 11.8065 450.429 16.7177 453.524C22.4706 464.029 39.5421 481.108 72.2632 479.472C92.9576 478.437 114.615 472.38 134.267 466.184C138.632 464.808 142.878 463.433 146.992 462.1L146.995 462.099L146.995 462.099L146.996 462.099C161.724 457.329 174.738 453.113 185.307 451.415C197.694 449.424 206.636 453.006 212.505 458.419C218.53 463.976 221.514 471.636 221.514 477.978C221.514 487.438 217.475 497.687 211.167 510.296C209.348 513.93 207.342 517.758 205.236 521.778L205.232 521.785C200.222 531.346 194.642 541.993 189.662 553.71C175.299 587.501 168.559 616.765 178.5 655.5C182.119 669.601 192.326 690.12 192.326 690.12C175.688 631.154 185.228 589.705 198.865 557.621C203.682 546.289 208.941 536.256 213.878 526.839C216.038 522.717 218.137 518.713 220.11 514.77C226.427 502.144 231.514 490.018 231.514 477.978C231.514 468.812 227.34 458.497 219.285 451.069C211.076 443.497 199.018 439.083 183.72 441.541C172.312 443.375 158.266 447.928 143.402 452.747L143.398 452.748C139.399 454.045 135.342 455.36 131.26 456.647C111.662 462.826 91.0694 468.519 71.7638 469.484C41.962 470.974 28.3994 454.841 25.02 447.812L24.3523 446.423L23.0189 445.651C18.8402 443.232 14.3841 439.227 11.8234 435.666C10.9871 434.502 10.5067 433.597 10.2503 432.97C64.462 406.909 87.4277 390.568 101.723 378.196C105.561 374.874 108.681 371.94 111.538 369.251C119.5 361.761 125.43 356.183 139.203 349.473C159.767 339.455 174.815 335.057 186.788 331.641L187.101 331.552C187.401 331.466 187.7 331.382 187.997 331.297L188.155 331.252L188.171 331.247C199.378 328.057 208.756 325.388 217.079 318.928C232.879 306.666 251.49 301.668 265.627 300.365C271.393 299.834 276.252 299.933 279.728 300.34C267.027 317.225 266.162 342.025 278.56 358.039L278.737 358.268L278.939 358.475C280.891 360.47 282.964 362.562 285.131 364.75L285.135 364.754L285.136 364.756C308.36 388.201 342.365 422.532 353.688 464.287C359.674 486.361 354.683 511.14 345.498 533.598C344.177 536.829 342.864 540.086 341.559 543.327L341.558 543.327C333.819 562.533 326.309 581.171 318.5 590.5C318.5 590.5 326.112 581.901 333.024 573.769L422.5 474.5L437.701 455.18C460.205 465.868 501.723 473.649 544.583 464.707C589.404 455.356 635.027 433.272 650.5 383.5C651.697 379.649 652.914 374.181 653.549 371.181C653.7 371.121 653.85 371.06 654 371C675.07 362.506 687.5 350.5 687.5 350.5L696.946 342.5L706 333C705.46 333.326 704.445 333.999 703.125 334.874C700.021 336.932 695.234 340.105 691 342.5C674.604 351.775 665.064 356.403 647 361C620.307 367.793 598.409 371.994 576.5 363C543.241 349.346 521.208 346.665 504.537 347.582C487.795 348.504 476 356.5 476 356.5C476 356.5 470.578 360.173 467.5 363C464.036 366.181 459.5 372 459.5 372C472.956 363.886 484.699 360.105 495.872 358.475L432.56 441.323C409.138 429.278 392.464 421.182 380.035 415.893C444.316 358.454 480.382 293.199 491.172 264.094C501.601 262.592 513.013 258.581 521.476 253.301C526.116 250.407 530.301 246.866 532.791 242.746C535.421 238.394 536.23 233.155 533.358 228.049C531.163 224.148 527.103 222.383 522.992 222.163C518.91 221.946 514.358 223.166 509.827 225.592C501.275 230.171 492.029 239.426 484.451 254.347C481.345 254.067 477.477 253.412 473.028 252.462C467.056 251.186 460.351 249.45 453.556 247.611C450.845 246.878 448.104 246.122 445.386 245.374C437.975 243.332 430.738 241.338 424.778 239.963C427.442 233.148 427.498 232.524 427.968 227.344L428 227C428.5 221.5 427.5 217 427.5 217C426.5 222.5 421.5 230 414.242 238.393C401.806 238.134 394.561 240.719 390.862 245.294C388.827 247.81 388.262 250.483 388.234 252.502C388.221 253.494 388.335 254.336 388.46 254.955C388.523 255.267 388.59 255.53 388.649 255.737C388.679 255.841 388.707 255.931 388.732 256.007C388.744 256.046 388.756 256.08 388.766 256.111L388.782 256.155L388.789 256.175L388.792 256.185C388.794 256.189 388.795 256.194 393.5 254.5L388.795 256.194L388.909 256.509L389.064 256.807L393.5 254.5C389.064 256.807 389.066 256.811 389.068 256.815L389.072 256.823L389.082 256.841L389.103 256.881C389.112 256.898 389.122 256.917 389.133 256.937L389.154 256.974C389.193 257.043 389.24 257.125 389.295 257.217C389.406 257.401 389.554 257.632 389.741 257.894C390.11 258.412 390.655 259.084 391.396 259.766C392.896 261.146 395.301 262.64 398.625 262.806C404.665 263.108 411.355 259.027 419.152 248.969C425.119 250.169 433.329 252.429 442.327 254.906C445.137 255.679 448.024 256.474 450.943 257.264C457.774 259.112 464.693 260.907 470.94 262.241C474.276 262.954 477.515 263.556 480.506 263.959C468.679 293.481 432.923 356.213 370.369 411.095L369.475 411.749C356.911 407.533 346.087 407.291 339 408L345.5 416.5C349.393 416.5 353.101 416.84 359.705 418.898L350.047 425.965L355.952 434.035L371.038 422.997C383.203 427.851 400.389 436.05 426.391 449.396L357.329 539.769C358.188 537.904 359.074 535.861 360 533.598C369.556 510.231 370.153 486.795 363.339 461.669C351.277 417.188 315.329 380.97 292.317 357.786L292.314 357.783C290.188 355.641 288.173 353.611 286.298 351.696C276.146 338.314 277.76 315.803 291.049 302.514C292.104 301.459 293.31 299.494 292.745 296.97C292.266 294.832 290.764 293.606 289.946 293.051C288.232 291.888 285.896 291.243 283.738 290.836C279.116 289.966 272.429 289.696 264.709 290.407C262.07 290.65 259.281 291.011 256.383 291.51C259.233 287.831 262.179 283.231 265.099 277.929C291.189 262.043 342.252 226.91 324.5 154.5C321.803 143.5 312.5 133.599 312.5 133.599C324.855 188.155 304.068 215.712 284.318 230.155C289.521 213.422 292.859 199.172 293.5 178.5C294.265 153.77 289.769 125.453 278.5 105.5C277.545 103.81 276.471 102.092 275.287 100.357C280.55 76.5317 280.492 28.6268 237.5 6.5C231.017 3.1638 220 0 220 0C261.868 29.7733 261.24 62.1197 256.594 79.7891ZM444.062 447.095C464.971 456.321 503.026 463.162 542.541 454.918C584.002 446.268 626.513 427.905 652.878 371.446C628.448 381.041 596.304 385.472 571.101 375.125C544.583 364.239 527.403 359.05 514.327 357.794L444.062 447.095ZM398.638 251.581C399.141 250.959 400.9 249.489 405.993 248.776C402.028 252.539 399.782 252.852 399.124 252.819C398.742 252.8 398.475 252.667 398.243 252.474C398.27 252.224 398.361 251.923 398.638 251.581ZM516.183 244.817C510.771 248.193 503.76 251.033 496.759 252.798C502.765 243.013 509.226 237.257 514.547 234.408C517.953 232.584 520.683 232.054 522.46 232.149C524.209 232.242 524.586 232.852 524.642 232.951C525.376 234.257 525.426 235.599 524.232 237.574C522.898 239.782 520.196 242.314 516.183 244.817ZM295.735 440.422C294.471 443.188 294.679 444.885 295.319 445.981C295.926 447.021 297.355 448.083 300.888 448.281C304.379 448.478 308.897 447.725 313.814 446.268C318.665 444.831 323.584 442.806 327.761 440.721C332.021 438.595 336.976 435.833 338.5 434.5L343.292 442.763C340.816 444.93 336.764 447.405 332.226 449.669C327.605 451.975 322.142 454.231 316.654 455.857C311.232 457.463 305.456 458.554 300.327 458.266C295.237 457.98 289.719 456.229 286.681 451.019C283.82 446.115 284.591 440.75 286.639 436.266C288.678 431.804 292.231 427.553 296.28 423.909C304.256 416.73 316.654 411 323.5 409.5L328.5 418C322.03 418.404 309.993 425.02 302.969 431.341C299.518 434.447 297.009 437.633 295.735 440.422Z"
            fill="#17bebb" />
    </g>
    <defs>
        <filter id="filter0_i" x="0" y="0" width="706" height="694.12" filterUnits="userSpaceOnUse"
            color-interpolation-filters="sRGB">
            <feFlood flood-opacity="0" result="BackgroundImageFix" />
            <feBlend mode="normal" in="SourceGraphic" in2="BackgroundImageFix" result="shape" />
            <feColorMatrix in="SourceAlpha" type="matrix" values="0 0 0 0 0 0 0 0 0 0 0 0 0 0 0 0 0 0 127 0"
                result="hardAlpha" />
            <feOffset dy="4" />
            <feGaussianBlur stdDeviation="2" />
            <feComposite in2="hardAlpha" operator="arithmetic" k2="-1" k3="1" />
            <feColorMatrix type="matrix" values="0 0 0 0 0 0 0 0 0 0 0 0 0 0 0 0 0 0 0.25 0" />
            <feBlend mode="normal" in2="shape" result="effect1_innerShadow" />
        </filter>
    </defs>
</svg>